<svg id="e3jrbGvtJIR1" xmlns="http://www.w3.org/2000/svg" xmlns:xlink="http://www.w3.org/1999/xlink" viewBox="0 0 100 100" shape-rendering="geometricPrecision" text-rendering="geometricPrecision"><path id="e3jrbGvtJIR2" d="M81.163000,44.618000L81.154000,30.930000L67.227000,30.940000C67.149000,32.260000,66.071000,33.310000,64.738000,33.311000C63.405000,33.312000,62.326000,32.264000,62.246000,30.944000L18.938000,31.027000L18.947000,44.693000C21.594000,44.712000,23.735000,46.871000,23.737000,49.538000C23.739000,52.205000,21.600000,54.367000,18.954000,54.390000L18.963000,68.056000L62.273000,67.973000C62.269000,67.917000,62.256000,67.864000,62.256000,67.808000C62.255000,66.416000,63.376000,65.287000,64.760000,65.286000C66.144000,65.285000,67.266000,66.413000,67.267000,67.804000C67.267000,67.861000,67.254000,67.914000,67.251000,67.969000L81.180000,67.959000L81.170000,54.270000C78.630000,54.132000,76.607000,52.037000,76.606000,49.447000C76.603000,46.858000,78.624000,44.760000,81.163000,44.618000Z" transform="matrix(1 0 0 1 0.13461388999998 0.04600000000001)" fill="rgb(241,91,108)" stroke="none" stroke-width="1"/><path id="e3jrbGvtJIR3" d="M19.171000,68.930000C18.906000,68.930000,18.652000,68.825000,18.465000,68.638000C18.277000,68.450000,18.150000,68.321000,18.150000,68.055000L18.140000,54.389000C18.140000,53.840000,18.582000,53.393000,19.132000,53.389000C21.224000,53.371000,22.925000,51.644000,22.924000,49.538000C22.923000,47.433000,21.219000,45.707000,19.127000,45.692000C18.578000,45.688000,18.281000,45.145000,18.280000,44.596000L18.271000,30.930000C18.271000,30.378000,18.530000,30.194000,19.082000,30.193000L62.390000,30.110000C62.390000,30.110000,62.391000,30.110000,62.391000,30.110000C62.920000,30.110000,63.399000,30.354000,63.431000,30.882000C63.480000,31.683000,64.136000,32.310000,64.923000,32.310000C64.923000,32.310000,64.924000,32.310000,64.924000,32.310000C65.713000,32.310000,66.368000,31.682000,66.416000,30.880000C66.447000,30.352000,66.822000,30.190000,67.351000,30.189000L81.278000,30.179000L81.278000,30.179000C81.543000,30.179000,81.342000,30.137000,81.530000,30.325000C81.718000,30.513000,81.823000,30.766000,81.823000,31.032000L81.832000,44.721000C81.832000,45.252000,81.935000,45.587000,81.405000,45.617000C79.378000,45.730000,77.790000,47.412000,77.791000,49.447000C77.792000,51.481000,79.382000,53.161000,81.410000,53.272000C81.940000,53.301000,81.884000,53.669000,81.885000,54.200000L81.894000,67.888000C81.894000,68.440000,81.917000,68.958000,81.365000,68.958000L67.437000,68.968000L67.437000,68.968000C67.161000,68.968000,66.898000,68.854000,66.709000,68.654000C66.520000,68.453000,66.422000,68.183000,66.439000,67.907000C66.440000,67.882000,66.451000,67.789000,66.454000,67.764000C66.453000,67.396000,66.295000,67.014000,66.010000,66.727000C65.726000,66.442000,65.349000,66.285000,64.948000,66.285000L64.947000,66.285000C64.117000,66.285000,63.442000,66.968000,63.443000,67.806000L63.457000,67.902000C63.477000,68.178000,63.401000,68.325000,63.212000,68.528000C63.024000,68.731000,62.759000,68.846000,62.482000,68.847000L19.172000,68.930000C19.173000,68.930000,19.172000,68.930000,19.171000,68.930000ZM19.958000,54.992000L19.937000,67.075000L61.541000,67.117000C61.914000,65.576000,63.299000,64.285000,64.946000,64.284000C64.946000,64.284000,64.947000,64.284000,64.948000,64.284000C65.885000,64.284000,66.765000,64.650000,67.427000,65.315000C67.887000,65.778000,68.162000,66.517000,68.311000,67.138000L80.228000,67.180000L80.145000,55.159000C77.523000,54.579000,75.794000,52.219000,75.792000,49.448000C75.791000,46.676000,77.567000,44.372000,80.188000,43.789000L80.125000,31.930000L68.227000,31.939000C67.751000,33.323000,66.445000,34.309000,64.926000,34.310000C64.925000,34.310000,64.924000,34.310000,64.923000,34.310000C63.406000,34.310000,62.100000,33.327000,61.622000,31.944000L19.958000,31.888000L19.896000,43.867000C22.611000,44.360000,24.748000,46.632000,24.750000,49.492000C24.752000,52.352000,22.674000,54.496000,19.958000,54.992000Z" fill="rgb(31,33,43)" stroke="none" stroke-width="1"/><path id="e3jrbGvtJIR4" d="M28.500000,36.305000L58.514000,36.305000L58.514000,61.565000L28.500000,61.565000Z" transform="matrix(1.05520589528154 0 0 1 -2.48416351749428 0)" fill="rgb(255,255,255)" stroke="none" stroke-width="1"/><path id="e3jrbGvtJIR5" d="M64.436000,37.527000C64.246000,37.527000,64.091000,37.303000,64.091000,37.027000L64.091000,36.027000C64.091000,35.751000,64.245000,35.527000,64.436000,35.527000L64.436000,35.527000C64.626000,35.527000,64.781000,35.751000,64.781000,36.027000L64.781000,37.027000C64.782000,37.303000,64.627000,37.527000,64.436000,37.527000L64.436000,37.527000ZM64.446000,59.142000C64.256000,59.142000,64.101000,58.918000,64.101000,58.642000L64.100000,56.481000C64.100000,56.205000,64.254000,55.981000,64.445000,55.981000L64.445000,55.981000C64.635000,55.981000,64.790000,56.205000,64.790000,56.481000L64.791000,58.642000C64.792000,58.917000,64.637000,59.142000,64.446000,59.142000C64.446000,59.142000,64.446000,59.142000,64.446000,59.142000ZM64.444000,53.738000C64.254000,53.738000,64.099000,53.514000,64.099000,53.238000L64.098000,51.077000C64.098000,50.801000,64.252000,50.577000,64.443000,50.577000C64.443000,50.577000,64.443000,50.577000,64.443000,50.577000C64.633000,50.577000,64.788000,50.801000,64.788000,51.077000L64.789000,53.238000C64.789000,53.514000,64.635000,53.738000,64.444000,53.738000L64.444000,53.738000ZM64.441000,48.334000C64.251000,48.334000,64.096000,48.110000,64.096000,47.834000L64.095000,45.672000C64.095000,45.396000,64.249000,45.172000,64.440000,45.172000L64.440000,45.172000C64.630000,45.172000,64.785000,45.396000,64.785000,45.672000L64.786000,47.834000C64.787000,48.110000,64.632000,48.334000,64.441000,48.334000C64.441000,48.334000,64.441000,48.334000,64.441000,48.334000ZM64.439000,42.931000C64.249000,42.931000,64.094000,42.707000,64.094000,42.431000L64.093000,40.269000C64.093000,39.993000,64.247000,39.769000,64.438000,39.769000C64.438000,39.769000,64.438000,39.769000,64.438000,39.769000C64.628000,39.769000,64.783000,39.993000,64.783000,40.269000L64.784000,42.431000C64.784000,42.706000,64.630000,42.931000,64.439000,42.931000L64.439000,42.931000ZM64.609000,63.384000C64.333000,63.384000,64.109000,63.160000,64.109000,62.884000L64.109000,61.884000C64.109000,61.608000,64.333000,61.384000,64.609000,61.384000L64.609000,61.384000C64.885000,61.384000,65.109000,61.608000,65.109000,61.884000L65.109000,62.884000C65.109000,63.160000,64.885000,63.384000,64.609000,63.384000L64.609000,63.384000Z" fill="rgb(31,33,43)" stroke="none" stroke-width="1"/><path id="e3jrbGvtJIR6" d="M55.500000,36.425000L56.500000,36.424000" transform="matrix(0.20753378401332 0.07085981727790 -0.32312189326725 0.94635735432837 60.14539466489875 -0.64926715664159)" fill="rgb(255,255,255)" stroke="none" stroke-width="1"/><path id="e3jrbGvtJIR7" d="M55.500000,36.925000C55.224000,36.925000,55,36.701000,55,36.425000C55,36.149000,55.223000,36.087000,55.500000,36.087000L56.500000,36.086000L56.500000,36.086000C56.776000,36.086000,56.999000,36.148000,57,36.423000C57,36.699000,56.777000,36.923000,56.500000,36.923000L55.500000,36.925000L55.500000,36.925000ZM53.080000,36.922000C52.950000,36.922000,52.820000,36.872000,52.720000,36.782000C52.630000,36.682000,52.580000,36.552000,52.580000,36.422000C52.580000,36.292000,52.630000,36.162000,52.720000,36.072000C52.910000,35.882000,53.240000,35.882000,53.430000,36.072000C53.530000,36.162000,53.580000,36.292000,53.580000,36.422000C53.580000,36.552000,53.530000,36.682000,53.430000,36.782000C53.340000,36.872000,53.210000,36.922000,53.080000,36.922000ZM28.500000,53.992000C28.224000,53.992000,28.127000,53.734000,28.127000,53.458000L28.116000,36.458000C28.116000,36.182000,28.276000,36.340000,28.552000,36.339000L51.564000,36.271000C51.630000,36.618000,51.564000,36.271000,51.564000,36.271000C51.840000,36.271000,51.999000,36.146000,52,36.422000C52.001000,36.698000,51.778000,36.922000,51.501000,36.923000L28.989000,36.989000L29,53.492000C29,53.768000,28.776000,53.992000,28.500000,53.992000L28.500000,53.992000Z" transform="matrix(1 0 0 1 -0.52679549999999 -0.20475132500000)" fill="rgb(31,33,43)" stroke="none" stroke-width="1"/><g id="e3jrbGvtJIR8"><path id="e3jrbGvtJIR9" d="M28.500000,56.492000L28.499000,55.492000" fill="rgb(255,255,255)" stroke="none" stroke-width="1"/><path id="e3jrbGvtJIR10" d="M28.500000,56.992000C28.224000,56.992000,28.059000,56.768000,28.059000,56.492000L28.059000,55.492000C28.059000,55.216000,28.224000,54.992000,28.500000,54.992000L28.500000,54.992000C28.776000,54.992000,29,55.216000,29,55.492000L29,56.492000C29,56.768000,28.776000,56.992000,28.500000,56.992000L28.500000,56.992000Z" transform="matrix(1 0 0 1 -0.51895573000001 -0.14859730000003)" fill="rgb(31,33,43)" stroke="none" stroke-width="1"/></g><path id="e3jrbGvtJIR11" d="M28.499000,61.909000C28.367000,61.909000,28.270000,61.839000,28.176000,61.745000C28.082000,61.651000,28.115000,61.501000,28.115000,61.369000L28.058000,58.463000C28.058000,58.187000,28.221000,57.992000,28.497000,57.992000L28.497000,57.992000C28.773000,57.992000,28.997000,58.216000,28.997000,58.492000L29,61.064000L58.015000,60.993000L58,40.493000C58,40.217000,58.224000,39.993000,58.500000,39.993000L58.500000,39.993000C58.776000,39.993000,58.798000,40.254000,58.798000,40.530000L58.813000,61.530000C58.813000,61.806000,58.791000,61.837000,58.516000,61.837000L28.499000,61.909000C28.500000,61.909000,28.500000,61.909000,28.499000,61.909000Z" transform="matrix(1.04689536856684 0 0 1 -2.04774440818290 -0.34400040000000)" fill="rgb(31,33,43)" stroke="none" stroke-width="1"/><rect id="e3jrbGvtJIR12" width="2.376503" height="12.561000" rx="0" ry="0" transform="matrix(1.05233172052880 1.24872453433531 0.00165884976765 0.78106866160823 28.89014710861836 45.36104539975869)" fill="rgb(248,7,7)" stroke="none" stroke-width="0.200000" stroke-linejoin="bevel"/><rect id="e3jrbGvtJIR13" width="2.376503" height="12.561000" rx="0" ry="0" transform="matrix(0.65232977237959 -0.78077798569211 0.00178196752183 0.83903860038903 38.18238666745439 47.40852461292233)" fill="rgb(248,7,7)" stroke="none" stroke-width="0.200000" stroke-linejoin="bevel"/><rect id="e3jrbGvtJIR14" width="2.376503" height="12.561000" rx="0" ry="0" transform="matrix(0.98449528646374 -1.17834917128579 0.00178196752183 0.83903860038903 37.78769049709562 47.88093917056080)" fill="rgb(248,7,7)" stroke="none" stroke-width="0.200000" stroke-linejoin="bevel"/><rect id="e3jrbGvtJIR15" width="2.376503" height="12.561000" rx="0" ry="0" transform="matrix(1.36518725507196 -0.55264249198298 -0.32391151794623 0.61018113136647 48.40094275484116 49.24181825951535)" fill="rgb(248,7,7)" stroke="none" stroke-width="0.200000" stroke-linejoin="bevel"/><line id="e3jrbGvtJIR16" x1="-2.252081" y1="-1.380482" x2="2.252081" y2="1.380482" transform="matrix(1.37748983301552 0.45855788624970 -0.34836059686803 1.04646151510657 32.08312364999997 46.48076400000003)" fill="none" stroke="rgb(63,87,135)" stroke-width="1"/><line id="e3jrbGvtJIR17" x1="-2.471997" y1="1.874978" x2="2.471997" y2="-1.874978" transform="matrix(1.84687125868653 -0.55870300717785 0.42037092804450 1.38959514271170 38.20476996000001 44.94842732999999)" fill="none" stroke="rgb(63,87,135)" stroke-width="1"/><line id="e3jrbGvtJIR18" x1="-2.471997" y1="1.874978" x2="2.471997" y2="-1.874978" transform="matrix(1.84687125868653 -0.55870300717785 0.42037092804450 1.38959514271170 53.69394757000001 43.63557227499997)" fill="none" stroke="rgb(63,87,135)" stroke-width="1"/><line id="e3jrbGvtJIR19" x1="-2.252081" y1="-1.380482" x2="2.252081" y2="1.380482" transform="matrix(1.37748983301552 0.45855788624970 -0.34836059686803 1.04646151510657 47.57230125999997 45.16790894500001)" fill="none" stroke="rgb(63,87,135)" stroke-width="1"/><rect id="e3jrbGvtJIR20" width="3.584124" height="2.968864" rx="0" ry="0" transform="matrix(1 0 0 1 28.49900000000000 55.17913597000002)" fill="rgb(255,255,255)" stroke="rgb(254,246,170)" stroke-width="0"/><rect id="e3jrbGvtJIR21" width="3.603744" height="3.462864" rx="0" ry="0" transform="matrix(1 0 0 1 37.41658369000000 55.17913597000001)" fill="rgb(255,255,255)" stroke="none" stroke-width="0"/><rect id="e3jrbGvtJIR22" width="5.861324" height="2.827156" rx="0" ry="0" transform="matrix(1 0 0 1 43.55841681000001 55.17913597000000)" fill="rgb(255,255,255)" stroke="none" stroke-width="0"/></svg>