<svg xmlns="http://www.w3.org/2000/svg" xmlns:xlink="http://www.w3.org/1999/xlink" viewBox="0 0 40 40"><path fill="#f78f8f" d="M1.56 38.5L4.16 15.5 35.84 15.5 38.44 38.5z"/><path fill="#c74343" d="M35.392,16l2.488,22H2.119l2.488-22H35.392 M36.286,15H3.714L1,39h38L36.286,15L36.286,15z"/><path fill="#ffd1d1" d="M32.241 16L29.491 16 33.085 38 35.835 38zM26.473 16L23.723 16 28.25 38 29.625 38zM7.759 16L10.509 16 6.915 38 4.165 38zM13.527 16L16.277 16 11.75 38 10.375 38z"/><path fill="#a6714e" d="M13.663 38.5L20.13 15.854 26.345 38.5z"/><path fill="#7a4f34" d="M20.121,17.709L25.689,38H14.326L20.121,17.709 M20.14,14L13,39h14L20.14,14L20.14,14z"/><path fill="#4e7ab5" d="M27 2.5L20 4 20 1z"/><path fill="#f78f8f" d="M35.5,17.5c-1.119,0-2.141-0.428-2.665-1.116l-0.35-0.46l-0.405,0.413 c-0.702,0.717-2.074,1.163-3.58,1.163c-1.555,0-2.988-0.485-3.652-1.235l-0.354-0.402l-0.376,0.382 C23.368,17.007,21.752,17.5,20,17.5s-3.368-0.493-4.117-1.255l-0.376-0.382l-0.354,0.402c-0.664,0.75-2.098,1.235-3.652,1.235 c-1.506,0-2.878-0.446-3.58-1.163l-0.405-0.413l-0.35,0.46C6.641,17.072,5.619,17.5,4.5,17.5c-1.626,0-3-0.916-3-2v-2.184 L20,4.553l18.5,8.763V15.5C38.5,16.584,37.126,17.5,35.5,17.5z"/><path fill="#c74343" d="M20,5.107l18,8.526V15.5c0,0.709-1.027,1.5-2.5,1.5c-0.952,0-1.842-0.361-2.267-0.919l-0.701-0.92 l-0.809,0.826C31.266,16.454,30.147,17,28.5,17c-1.612,0-2.808-0.536-3.277-1.067l-0.711-0.803l-0.752,0.765 C23.22,16.445,21.848,17,20,17s-3.22-0.555-3.76-1.105l-0.752-0.765l-0.711,0.803C14.308,16.464,13.112,17,11.5,17 c-1.647,0-2.766-0.546-3.223-1.013l-0.809-0.826l-0.701,0.92C6.342,16.639,5.452,17,4.5,17C3.027,17,2,16.209,2,15.5v-1.867 L20,5.107 M20,4L1,13v2.5C1,16.881,2.567,18,4.5,18c1.328,0,2.469-0.535,3.062-1.313C8.325,17.465,9.792,18,11.5,18 c1.774,0,3.293-0.575,4.026-1.404C16.341,17.425,18.029,18,20,18s3.659-0.575,4.474-1.404C25.207,17.425,26.726,18,28.5,18 c1.708,0,3.175-0.535,3.937-1.313C33.031,17.465,34.172,18,35.5,18c1.933,0,3.5-1.119,3.5-2.5V13L20,4L20,4z"/><g><path fill="#ffd1d1" d="M32.532,15.161l-0.809,0.826C31.266,16.454,30.147,17,28.5,17c-1.612,0-2.808-0.536-3.277-1.067 l-0.711-0.803L20,5.108L32.532,15.161z"/></g><g><path fill="#ffd1d1" d="M20,5.108L15.488,15.13l-0.711,0.803C14.308,16.464,13.112,17,11.5,17 c-1.647,0-2.766-0.546-3.223-1.013l-0.809-0.826L20,5.108z"/></g></svg>