<svg xmlns="http://www.w3.org/2000/svg" xmlns:xlink="http://www.w3.org/1999/xlink" width="512" height="512" viewBox="0 0 512 512"><path fill="#EF4823" d="M479.2 426.8c0 0 0-.1-.1-.1 0 .2 0 .4.1.7C479.1 427.2 479.2 427 479.2 426.8zM479.1 425.8C479.1 425.8 479.1 425.8 479.1 425.8c-.2-.7-1-1.3-3.3-2.1 1.7.6 2.8 1.7 3.4 3C479.1 426.4 479.1 426.1 479.1 425.8zM189.6 77.7c-14.8.7-29.6 1.5-44.4 2-16 .5-32-1.3-48-.5C84.7 79.7 72 82 59.4 81.5c.3 11.9-.1 23.8-.4 35.7-.4 14.1-.4 28.2-.8 42.3-.8 30.4-2.4 60.6-2.7 91-.2 23-.2 45.9-.7 68.9 1.8-.5 3.7-.8 5.6-1.2.3-9.3 2-18.5 3.5-27.7 1.6-9.7 2.3-19.3 2.3-29.1 0-7.2-.6-13.9-1.4-21-.5-4.8-1.5-11.3 1.5-15.5 4.1-5.7 13.7-.3 9.5 5.5-2.1 2.9.1 11 .6 14.5 1 7.2.9 14.4.8 21.6-.3 12.4-2.8 24.6-4.4 36.8 5.8-19.1 8.6-39.4 11.5-59 3.8-25.2 4.8-50.5 6.4-75.8.4-7 11.4-7.2 11-.1-1.6 25.7-2.7 51.4-6.5 76.8-1.3 8.9-2.6 17.9-4.1 26.9 5.3-12.4 11-24.6 16.6-36.8 16.1-34.9 29.3-73.1 32-111.7.5-7 11.5-7.2 11-.1-2.8 41.4-16.9 81.7-34.2 119.1-7.7 16.5-16.1 34.1-21.9 50.5-1.2 3.5-2.4 7-3.8 10.5 8.4-6.3 16.8-12.5 24.8-19.4 18.6-15.9 33.5-34.6 44.2-56.7 11.3-23.3 19.6-48 24.2-73.6 2.3-13.1 3.5-26.3 4.6-39.6C189.4 102.1 190.3 89.9 189.6 77.7zM89 383.5c-3.1-11.8-5.4-23.9-9.4-35.3-2.8 2.1-6.4 3.3-10 3.6.2.5.2 1.1.2 1.7 0 6.4 2.1 13.3 2.9 19.7 1 7.8 2.2 15.4 3.6 23.1 1.4 7.5 2.8 15.8 6.1 22.7 1.6 3.5 3.4 8.6 6.4 11.5 3-1.2 6.1-1.9 9.2-1.6 3.3.3 6.5.7 9.8 1C99 415.7 93.2 399.9 89 383.5zM341.6 78.5c-.3 0-.5 0-.8 0-7.9-.3-15.9-.5-23.8-.8.5 3.6-2.9 7.6-6.9 6.3 0 0-.1 0-.1 0-.5.2-1 .4-1.5.7-1.4.7-2.7 1.5-4 2.3-2.1 1.3-4.3 3.1-6.6 4.1-8.2 3.5-16.1 3.9-24.9 3.4-14.1-1-30.1-3.3-39.9-14.6-1-1.2-1.4-2.4-1.4-3.7-10.3.2-20.7.6-31 1 .4 6.3.3 12.6 0 18.9 5.4-1.3 14.7 3.6 18.2 4.9 12.1 4.8 24.6 8.5 37.6 9.4 14.7 1 29.2-.3 43.3-4.8 7.1-2.3 14-5 20.7-8.3 5.1-2.5 11.1-4.5 15-8.8 1.8-2 4-2.1 5.8-1.2C341.2 84.8 341.1 81.4 341.6 78.5zM73.5 425.7c-3.4-7.2-5.4-14.9-7-22.7-1.9-9.2-3.4-18.5-4.6-27.8-.9-7.1-3.1-14.5-3.2-21.6 0-1.1.3-2.1.7-2.9-2-.6-3.9-1.5-5.7-2.5-1.2 26.7-3.7 53.3-5.5 79.9 1.5.4 2.8 1.3 3.3 2.8 3.9 1.5 6.9 4.3 11 6.2 4.6 2.1 11.5.6 16.2-1.6C76.8 432.5 75.1 429 73.5 425.7z"/><path fill="#FEBF10" d="M69.4,327.5C69.4,327.5,69.4,327.5,69.4,327.5c-4.2,0.9-8.4,1.5-12.5,2.7c-0.9,0.2-1.7,0.3-2.4,0.2c-0.1,2.2-0.1,4.4-0.2,6.6c1.5-0.3,3.1,0.1,4.6,1.4c2.7,2.4,12.3,4.3,14.8,0.6c0.4-0.7,1-1.2,1.5-1.5C73.5,334,71.6,330.7,69.4,327.5z"/><path fill="#EF4823" d="M245.3 76.1c10.1 7.2 25.6 8.3 37.2 7.6 6.9-.4 11.3-3.3 17-6.6C281.4 76.5 263.4 76.1 245.3 76.1zM472.2 178.8c.6-31.7 2.8-63.3.9-95-.2 0-.3-.1-.5-.1-11.6-3.6-23.9-2.6-35.9-3-27.9-.9-55.8-1.1-83.6-1.9-.2.5-.5 1.1-.8 1.5 0 .9 0 1.8 0 2.7 0 1.6.1 3.2.2 4.7.2 5 .1 10 .1 15 .2 13.6.7 27.4 2.6 40.9 2 14 5.1 27.9 8.1 41.8 2.7 12.6 8.2 24.1 11.8 36.4 3.7 12.6 8.3 23.9 16.1 34.6 7.1 9.7 15.4 18.5 24.2 26.7 8.6 8.2 17.7 17.9 28 23.9 3.9 2.3 7.8 3.6 12 4.2-3.5-3.1-6.8-6.3-10.1-9.6-5.1-4.9-10.6-9.4-15.5-14.6-9.6-10.2-17.8-21.8-23.8-34.6-6.6-14.2-11.2-29.3-15.4-44.4-4.5-16.1-8.1-32.4-9.3-49.1-.5-7.1 10.5-7.2 11-.1 1.2 15.7 4.6 31.2 8.9 46.3 4 14 7.9 28.6 14.3 41.8 5.7 11.8 12.9 22.9 22.1 32.4 4.9 5.1 10.4 9.6 15.5 14.6 1.3 1.3 2.5 2.5 3.8 3.8-7.5-9.5-12.4-20.9-15.8-32.8-3-10.5-5.7-21.3-9.2-31.7-2.8-8.2-7.1-16.4-6.9-25.3.1-7.1 11.1-7.2 11-.1-.2 8.3 4.7 16 6.9 23.8 2.7 9.5 5.6 19.1 8.3 28.6 4.1 14.3 9.9 27.3 20.5 37.4.8 0 1.6.3 2.3.9 0-7.6-.1-15.1-.2-22.6C473.2 243.4 471.5 211.1 472.2 178.8zM470.2 310.2c.1.6.3 1.2.3 2 0 .2 0 .3 0 .5 1.1.2 2.2.5 3.2.8 0-1 0-2.1 0-3.1C472.7 310.6 471.4 310.6 470.2 310.2zM443.5 338.2c-1.6 4.1-3 8.3-3.9 12.6-2.7 12.4-3.6 25-6 37.4-2.1 10.7-4.3 23.7-10.7 32.9-.7 1-1.4 1.9-2.1 2.8 1.4-.1 2.8 0 4.1.2.6-.5 1.2-.9 1.9-1.2.5-.7 1-1.5 1.4-2.2 1.4-2.4 2.7-4.8 3.9-7.2 2.6-5.2 5.1-10.5 7.3-15.9 6.7-16.1 10.1-35.4 16.8-52.2.2-.5.4-.9.7-1.3C452.4 343 446.8 341.5 443.5 338.2zM341.7 98c-4.1 3.7-9.4 5.8-14.3 8.2-6.5 3.2-13.1 6.1-19.9 8.5-12.9 4.5-26.5 7.2-40.2 7.1-15.1 0-30-2.5-44.3-7.6-3.9-1.4-7.7-2.9-11.5-4.3-1.9-.7-3.8-1.5-5.8-2.1-.6-.2-1.3-.4-1.9-.6-1.2.4-2.6.1-3.9-.5-.3 3.7-.6 7.4-.9 11.1-.1 1.3-.2 2.5-.3 3.8.3.1.6.2.9.4 11.7 6.5 21.8 15.7 34.4 20.4 12.3 4.6 25.5 7.8 38.6 8.9 13.5 1 27.2.3 40.1-4.1 9.6-3.3 22-8.7 27.3-17.8.6-1.1 1.4-1.8 2.3-2.2C341.9 117.5 341.9 107.8 341.7 98z"/><path fill="#FEBF10" d="M473.2,324.8c-6.8-2.7-14.1-1.5-21.1-2.8c-0.2,0-0.4-0.1-0.6-0.1c-0.7,2.2-1.9,4.1-3.1,6c1,0.4,2,1.1,2.7,2.4c-0.4-0.7,0,0,0.6,0.3c0.6,0.3,1.2,0.7,1.8,0.9c1.9,0.7,3.9,1.4,5.8,1.9c2.1,0.5,4.3,1.1,6.4,1.2c0.7,0,1.4,0.1,2.1,0c1.7-1.5,3.9-1.5,5.8-0.7c0.1-2.9,0.1-5.9,0.1-8.8C473.6,325,473.4,324.9,473.2,324.8z"/><path fill="#EF4823" d="M467.2,345.6c0.1,0.8,0,1.6-0.4,2.5c-7.7,19.4-11.2,40.2-19.8,59.3c-1.4,3.1-6,15.3-11.5,22c0.3,0.3,0.7,0.6,1,0.9c4.3,4.1,10.7,12.1,17.7,10c6.7-2,6.4-8.3,9.9-13.2c1-1.4,2.4-2.2,3.9-2.3c0-0.3,0-0.6,0-1c0.4-16.8,3.4-33.6,4.2-50.4c0.5-9.8,0.8-19.6,1.1-29.4C471.6,345.2,469.4,345.6,467.2,345.6z"/><path fill="#010101" d="M483,195.9c0-32.4,2.5-64.7,1.8-97.1c-0.1-5.9-0.4-11.8-0.8-17.6c-0.2-3.3-2.8-5.1-5.4-5.2c-0.6-1.3-1.6-2.4-3.2-3c1.3,0.5-1.8-0.8-2-0.8c-0.6-0.1-1.1-0.2-1.6-0.2c-12-2.9-24.6-2-36.8-2.4c-15.7-0.5-31.3-0.7-47-0.9c-32.8-0.5-65.6-2-98.4-2.9c-32.7-0.9-65.3-1.1-97.9,0.6c-16.1,0.9-32.3,1.9-48.5,2.3c-16,0.5-32-1.2-47.9-0.5c-13.8,0.6-27.5,3.3-41.3,1.9c-3.8-0.4-5.5,2.7-5.1,5.7c-0.3,0.7-0.5,1.6-0.5,2.5c1,26.4-0.5,53-1.1,79.4c-0.7,30.3-2.4,60.6-2.7,90.9c-0.3,31-0.2,61.9-1.3,92.9C42.1,372.4,39,403,37,433.7c-0.2,3.6,2.5,5.3,5.4,5.2c1.1,1.1,2.6,1.8,4.1,1.8c2.7,0.1,5,2.1,7.1,3.6c2.4,1.7,4.9,3,7.6,3.9c5.8,2,14,0.2,19.6-1.7c5.5-1.8,10-6.2,15.9-6.7c7.3-0.6,15.2,1.6,22.5,2.1c5.3,0.4,6.4-6.1,3.8-9.4c-12.8-16.1-19.3-35.7-24.3-55.3c-4.7-18.5-8.1-37.4-18.7-53.6c4.1-2.1,8-4.6,11.7-7.3c9.8-7.2,19.6-14.6,28.9-22.3c20-16.5,36.1-36.3,47.7-59.5c12-24,20.7-49.7,25.8-76.1c1.6-8.2,2.7-16.5,3.6-24.8c11.2,6.7,21.3,14.6,33.7,19.5c14.2,5.6,29.8,8.5,45,9.5c14.5,0.9,29.2-1,42.8-5.9c8.5-3.1,17.9-7.8,24.7-14.4c1.4,10.5,3.4,20.9,5.6,31.3c3.2,15.3,7.2,29.8,12.9,44.4c2.6,6.6,4,13.6,6.3,20.2c2.3,6.4,5.5,12.5,9.2,18.2c7.5,11.9,17.2,22.3,27.2,32.1c9.5,9.2,19.4,18.7,30.1,26.3c1.9,1.3,3.9,2.5,5.9,3.5c-0.3,1.9-1.8,3.5-2.9,4.9c-1.7,2.4-2.6,5.2-3.7,7.8c-2,4.9-3.9,9.8-5.2,14.9c-2.8,11-4,22.6-5.5,33.8c-1.4,10.5-3.7,22.3-8.3,31.9c-4,8.5-12.1,13.8-19.9,18.4c-5.1,3-2.3,9.8,2.9,10.2c7.6,0.7,14.3-3.6,21.4-5.4c7.5-1.9,12.6,7.8,18,11.6c7.2,5,15.3,6.3,23.4,2.8c7-3,7.9-9.6,11.3-15.2c0.1,0,0.1,0.1,0.2,0.1c5,1.6,7.8-3.8,6.2-7.6c0,0.2,0,0.4,0,0.5c0-0.2,0-0.4-0.1-0.7c-0.6-1.3-1.7-2.4-3.4-3c2.3,0.7,3.1,1.4,3.3,2c-0.1-1.4,0-2.8,0.1-4.2c0.2-4.2,0.6-8.4,1-12.6c0.7-7.1,1.7-14.1,2.3-21.2c2.9-31.3,2.5-63.2,2.4-94.6C484.6,260.8,483,228.4,483,195.9z M54.5,330.4c0.7,0.1,1.5,0.1,2.4-0.2c4.1-1.1,8.3-1.8,12.4-2.7c0,0,0,0,0,0.1c2.2,3.2,4.1,6.5,5.8,9.9c-0.6,0.4-1.1,0.9-1.5,1.5c-2.5,3.7-12,1.8-14.8-0.6c-1.4-1.3-3.1-1.6-4.6-1.4C54.4,334.8,54.5,332.6,54.5,330.4z M62.8,437.1c-4.1-1.9-7.2-4.7-11-6.2c-0.6-1.5-1.9-2.4-3.3-2.8c1.8-26.6,4.3-53.2,5.5-79.9c1.7,1.1,3.6,1.9,5.7,2.5c-0.5,0.8-0.7,1.7-0.7,2.9c0,7.1,2.3,14.5,3.2,21.6c1.2,9.3,2.7,18.6,4.6,27.8c1.6,7.8,3.6,15.5,7,22.7c1.6,3.3,3.2,6.8,5.4,9.8C74.2,437.7,67.3,439.2,62.8,437.1z M89,383.5c4.3,16.4,10,32.3,19,46.5c-3.3-0.3-6.5-0.7-9.8-1c-3.2-0.3-6.3,0.4-9.2,1.6c-3-2.9-4.8-8-6.4-11.5c-3.3-6.9-4.7-15.2-6.1-22.7c-1.5-7.7-2.7-15.4-3.6-23.1c-0.8-6.4-2.9-13.3-2.9-19.7c0-0.6-0.1-1.2-0.2-1.7c3.7-0.3,7.2-1.5,10-3.6C83.6,359.6,85.9,371.6,89,383.5z M188.4,114.2c-1.1,13.3-2.2,26.4-4.6,39.6c-4.6,25.5-12.9,50.2-24.2,73.6c-10.7,22.1-25.6,40.8-44.2,56.7c-8,6.8-16.4,13-24.8,19.4c1.3-3.5,2.5-7,3.8-10.5c5.8-16.4,14.3-34,21.9-50.5c17.3-37.4,31.4-77.7,34.2-119.1c0.5-7.1-10.5-6.9-11,0.1c-2.7,38.6-15.9,76.8-32,111.7c-5.6,12.2-11.3,24.4-16.6,36.8c1.5-9,2.8-18,4.1-26.9c3.8-25.5,4.9-51.2,6.5-76.8c0.4-7.1-10.6-6.9-11,0.1c-1.6,25.4-2.7,50.7-6.4,75.8c-2.9,19.6-5.7,39.9-11.5,59c1.6-12.2,4.2-24.4,4.4-36.8c0.1-7.2,0.2-14.5-0.8-21.6c-0.5-3.5-2.7-11.7-0.6-14.5c4.1-5.8-5.4-11.2-9.5-5.5c-3,4.2-2,10.7-1.5,15.5c0.8,7.1,1.4,13.8,1.4,21c0,9.8-0.7,19.4-2.3,29.1c-1.5,9.2-3.2,18.4-3.5,27.7c-1.9,0.3-3.7,0.7-5.6,1.2c0.5-23,0.5-45.9,0.7-68.9c0.2-30.4,1.8-60.6,2.7-91c0.4-14.1,0.4-28.2,0.8-42.3c0.3-11.9,0.7-23.8,0.4-35.7C72,82,84.7,79.7,97.3,79.1c15.9-0.7,32,1,48,0.5c14.8-0.4,29.6-1.2,44.4-2C190.3,89.9,189.4,102.1,188.4,114.2z M299.5,77.1c-5.7,3.3-10.1,6.2-17,6.6c-11.5,0.6-27.1-0.5-37.2-7.6C263.4,76.1,281.4,76.5,299.5,77.1z M231.6,76.1c0,1.2,0.4,2.5,1.4,3.7c9.8,11.3,25.8,13.6,39.9,14.6c8.8,0.6,16.7,0.2,24.9-3.4c2.3-1,4.4-2.8,6.6-4.1c1.3-0.8,2.7-1.6,4-2.3c0.5-0.3,1-0.5,1.5-0.7c0.1,0,0.1,0,0.1,0c4,1.3,7.4-2.7,6.9-6.3c7.9,0.3,15.9,0.5,23.8,0.8c0.3,0,0.5,0,0.8,0c-0.5,3-0.4,6.3-0.2,8.9c-1.8-0.9-4-0.7-5.8,1.2c-3.9,4.3-9.9,6.2-15,8.8c-6.7,3.3-13.6,6-20.7,8.3c-14.1,4.5-28.6,5.8-43.3,4.8c-13-0.9-25.6-4.6-37.6-9.4c-3.5-1.4-12.8-6.3-18.2-4.9c0.3-6.3,0.4-12.6,0-18.9C211,76.7,221.3,76.3,231.6,76.1z M340.2,129.5c-5.3,9.1-17.7,14.6-27.3,17.8c-12.9,4.4-26.6,5.1-40.1,4.1c-13.1-1-26.3-4.3-38.6-8.9c-12.7-4.8-22.8-13.9-34.4-20.4c-0.3-0.2-0.6-0.3-0.9-0.4c0.1-1.3,0.2-2.5,0.3-3.8c0.3-3.7,0.6-7.4,0.9-11.1c1.2,0.7,2.6,0.9,3.9,0.5c0.6,0.2,1.3,0.4,1.9,0.6c1.9,0.6,3.9,1.4,5.8,2.1c3.8,1.5,7.6,3,11.5,4.3c14.3,5.1,29.1,7.5,44.3,7.6c13.7,0,27.3-2.7,40.2-7.1c6.8-2.4,13.4-5.3,19.9-8.5c4.9-2.4,10.2-4.5,14.3-8.2c0.2,9.8,0.2,19.5,0.8,29.3C341.6,127.7,340.8,128.4,340.2,129.5z M432.2,413.4c-1.2,2.4-2.5,4.8-3.9,7.2c-0.4,0.8-0.9,1.5-1.4,2.2c-0.7,0.3-1.3,0.7-1.9,1.2c-1.3-0.2-2.7-0.3-4.1-0.2c0.7-0.9,1.4-1.8,2.1-2.8c6.4-9.1,8.6-22.1,10.7-32.9c2.4-12.4,3.3-25.1,6-37.4c0.9-4.3,2.3-8.5,3.9-12.6c3.4,3.3,9,4.8,13.4,5.9c-0.3,0.4-0.5,0.8-0.7,1.3c-6.7,16.8-10.1,36.1-16.8,52.2C437.2,403,434.8,408.2,432.2,413.4z M472.3,373.6c-0.8,16.8-3.8,33.6-4.2,50.4c0,0.3,0,0.6,0,1c-1.4,0.2-2.8,0.9-3.9,2.3c-3.6,4.9-3.3,11.1-9.9,13.2c-7,2.1-13.4-5.9-17.7-10c-0.3-0.3-0.7-0.6-1-0.9c5.5-6.8,10.2-18.9,11.5-22c8.5-19.1,12.1-39.9,19.8-59.3c0.4-0.9,0.5-1.8,0.4-2.5c2.2,0,4.4-0.4,6.1-1.4C473.1,354,472.8,363.8,472.3,373.6z M473.6,333.8c-1.9-0.8-4.1-0.8-5.8,0.7c-0.7,0-1.4,0-2.1,0c-2.2-0.1-4.3-0.7-6.4-1.2c-2-0.5-3.9-1.1-5.8-1.9c-0.6-0.2-1.2-0.6-1.8-0.9c-0.5-0.3-1-1-0.6-0.3c-0.7-1.3-1.6-2-2.7-2.4c1.2-1.9,2.4-3.9,3.1-6c0.2,0,0.4,0.1,0.6,0.1c7.1,1.3,14.3,0.1,21.1,2.8c0.2,0.1,0.3,0.1,0.5,0.2C473.7,327.9,473.6,330.9,473.6,333.8z M473.8,313.4c-1.1-0.3-2.1-0.6-3.2-0.8c0-0.2,0-0.3,0-0.5c-0.1-0.7-0.2-1.4-0.3-2c1.2,0.4,2.4,0.4,3.6,0.1C473.8,311.3,473.8,312.4,473.8,313.4z M472.2,178.8c-0.6,32.3,1,64.6,1.5,96.9c0.1,7.5,0.2,15.1,0.2,22.6c-0.7-0.6-1.5-0.8-2.3-0.9c-10.6-10.1-16.4-23.1-20.5-37.4c-2.7-9.5-5.6-19-8.3-28.6c-2.2-7.8-7-15.5-6.9-23.8c0.1-7.1-10.9-6.9-11,0.1c-0.2,8.9,4.1,17.1,6.9,25.3c3.5,10.4,6.2,21.1,9.2,31.7c3.4,11.9,8.4,23.2,15.8,32.8c-1.3-1.3-2.5-2.5-3.8-3.8c-5.1-5-10.6-9.5-15.5-14.6c-9.1-9.5-16.4-20.5-22.1-32.4c-6.4-13.2-10.3-27.7-14.3-41.8c-4.3-15.1-7.7-30.6-8.9-46.3c-0.5-7-11.5-6.9-11,0.1c1.2,16.7,4.8,33,9.3,49.1c4.2,15,8.8,30.2,15.4,44.4c6,12.7,14.2,24.4,23.8,34.6c4.9,5.2,10.4,9.6,15.5,14.6c3.4,3.3,6.6,6.5,10.1,9.6c-4.2-0.6-8-1.9-12-4.2c-10.3-6-19.4-15.7-28-23.9c-8.7-8.3-17.1-17-24.2-26.7c-7.8-10.7-12.4-22-16.1-34.6c-3.6-12.3-9.1-23.8-11.8-36.4c-3-13.9-6.1-27.7-8.1-41.8c-1.9-13.5-2.5-27.2-2.6-40.9c-0.1-5,0.1-10-0.1-15c-0.1-1.6-0.2-3.2-0.2-4.7c0-0.9,0-1.8,0-2.7c0.4-0.5,0.6-1,0.8-1.5c27.9,0.7,55.8,1,83.6,1.9c12,0.4,24.3-0.7,35.9,3c0.2,0.1,0.4,0.1,0.5,0.1C475,115.5,472.8,147.1,472.2,178.8z"/><g><path fill="#010101" d="M479.1,425.8C479.1,425.8,479.1,425.8,479.1,425.8c0,0.3,0,0.6,0,0.9c0,0,0,0.1,0.1,0.1C479.2,426.5,479.2,426.1,479.1,425.8z"/></g></svg>