<svg xmlns="http://www.w3.org/2000/svg" xmlns:xlink="http://www.w3.org/1999/xlink" width="48" height="48" viewBox="0 0 48 48"><path fill="#FF9800" d="M27,11c0,0.553-0.447,1-1,1s-1-0.447-1-1c-0.553,0-1,0-1,0v6h4v-6C28,11,27.553,11,27,11z"/><path fill="#FFB74D" d="M6.5 26c-.247 0-.497-.061-.728-.188-.725-.402-.985-1.315-.583-2.04l4.796-7.24c.813-.957 1.927-2.209 2.648-1.807.725.402 1.174 1.551.772 2.275l-5.593 8.229C7.538 25.722 7.026 26 6.5 26zM21.5 22c-.386 0-.77-.148-1.061-.439l-4-4c-.586-.586-.586-1.535 0-2.121s1.535-.586 2.121 0l3.08 3.08L24.6 16.3c.665-.494 1.604-.363 2.101.3s.362 1.604-.3 2.101l-4 3C22.132 21.901 21.815 22 21.5 22zM15.5 12c-1.932 0-3.5-1.57-3.5-3.5S13.568 5 15.5 5 19 6.57 19 8.5 17.432 12 15.5 12M36.5 12c-1.932 0-3.5-1.57-3.5-3.5S34.568 5 36.5 5 40 6.57 40 8.5 38.432 12 36.5 12"/><path fill="#FFA000" d="M29,42H6V26h23V42z"/><path fill="#607D8B" d="M37,14.043v-0.02C36.854,14.014,36.71,14,36.563,14c-0.025,0-0.049,0.004-0.074,0.004c-0.018,0-0.032-0.004-0.051-0.004c-0.147,0-0.292,0.014-0.438,0.023v0.007c-1.301,0.118-2.49,0.641-3.463,1.449c-0.182,0.105-0.342,0.249-0.469,0.429c-0.338,0.339-0.644,0.712-0.907,1.12l-2.755,3.378l-4.678,2.808c-0.711,0.426-0.941,1.348-0.515,2.058c0.281,0.469,0.778,0.729,1.287,0.729c0.263,0,0.529-0.068,0.771-0.214l5-3c0.211-0.127,0.388-0.304,0.515-0.515l1.246-1.557L33,42h3h1h2l0.886-10.635C40.074,31.45,40.281,31.5,40.5,31.5c0.828,0,1.5-0.672,1.5-1.5v-2v-8C42,16.347,40.25,14.264,37,14.043z"/><path fill="#455A64" d="M39.887,31.365C39.365,31.131,39,30.609,39,30V19c0,0-2,8-2,11c0,1.72,1.164,3.063,2.716,3.408L39.887,31.365z"/><path fill="#E91E63" d="M21.641,18.52c0,0-2.42-2.986-2.422-2.988c-0.489-0.59-1.764-1.511-3.719-1.511c-3.406,0-4.612,1.123-5.146,1.934S8.3,19.076,8.3,19.076l2.616,1.613C10.484,22.987,9.978,25.72,9.555,28h11.138c-0.298-1.938-0.758-4.926-1.125-7.312L21.641,18.52z"/><path fill="#EF6C00" d="M5 26H30V30H5z"/></svg>