<svg xmlns="http://www.w3.org/2000/svg" xmlns:xlink="http://www.w3.org/1999/xlink" viewBox="0 0 48 48"><path fill="#db8509" d="M24 35A4 4 0 1 0 24 43 4 4 0 1 0 24 35zM26 11c0 1.104-.896 2-2 2l0 0c-1.104 0-2-.896-2-2V7c0-1.104.896-2 2-2l0 0c1.104 0 2 .896 2 2V11z"/><path fill="#bc6f0a" d="M27.887,39.91C27.955,39.617,28,39.313,28,39c0-0.383-0.07-0.746-0.172-1.097 C26.609,37.965,25.333,38,24,38s-2.609-0.035-3.829-0.096C20.071,38.255,20,38.618,20,39c0,0.313,0.045,0.616,0.113,0.909 C21.584,39.979,22.926,40,24,40S26.416,39.979,27.887,39.91z"/><path fill="#ffc107" d="M41,34c0,2.21-7.06,4-17,4S7,36.21,7,34c0-0.14,0.03-0.28,0.09-0.42c0.16-0.45,0.53-1.03,1.04-1.7 c0.36-0.49,0.79-1.02,1.25-1.59C11.74,27.46,15,23.92,15,22v-5c0-4.97,4.03-9,9-9s9,4.03,9,9v5c0,1.92,3.26,5.46,5.62,8.29 c0.46,0.57,0.89,1.1,1.25,1.59c0.51,0.67,0.88,1.25,1.04,1.7C40.97,33.72,41,33.86,41,34z"/><path fill="#ffe082" d="M39.87,31.88C36.27,33.98,31.06,35,24,35s-12.27-1.02-15.87-3.12c0.36-0.49,0.79-1.02,1.25-1.59 C14.28,33,21.53,33,24,33s9.72,0,14.62-2.71C39.08,30.86,39.51,31.39,39.87,31.88z"/><path fill="#ffab00" d="M38.01 11.64l-1.67 1.28C36.77 14.2 37 15.58 37 17c0 1.42-.23 2.8-.66 4.08l1.67 1.28C38.65 20.7 39 18.89 39 17S38.65 13.3 38.01 11.64zM11.66 12.92l-1.67-1.28C9.35 13.3 9 15.11 9 17s.35 3.7.99 5.36l1.67-1.28C11.23 19.8 11 18.42 11 17 11 15.58 11.23 14.2 11.66 12.92zM42.91 7.89l-1.62 1.24C42.39 11.53 43 14.19 43 17s-.61 5.47-1.71 7.87l1.62 1.24C44.25 23.35 45 20.26 45 17S44.25 10.65 42.91 7.89zM6.71 9.13L5.09 7.89C3.75 10.65 3 13.74 3 17s.75 6.35 2.09 9.11l1.62-1.24C5.61 22.47 5 19.81 5 17S5.61 11.53 6.71 9.13z"/></svg>