<svg xmlns="http://www.w3.org/2000/svg" xmlns:xlink="http://www.w3.org/1999/xlink" viewBox="0 0 32 32" fill="#00FF05">
  <path d="M9 6C7.355469 6 6 7.355469 6 9L6 12.1875C4.84375 12.605469 4 13.707031 4 15L4 27L6 27L6 25L26 25L26 27L28 27L28 15C28 13.707031 27.15625 12.605469 26 12.1875L26 9C26 7.355469 24.644531 6 23 6 Z M 9 8L23 8C23.554688 8 24 8.445313 24 9L24 12.1875C22.84375 12.605469 22 13.707031 22 15L22 17L10 17L10 15C10 13.707031 9.15625 12.605469 8 12.1875L8 9C8 8.445313 8.445313 8 9 8 Z M 7 14C7.554688 14 8 14.445313 8 15L8 19L24 19L24 15C24 14.445313 24.445313 14 25 14C25.554688 14 26 14.445313 26 15L26 23L6 23L6 15C6 14.445313 6.445313 14 7 14Z" fill="#00FF05" />
</svg>