<svg id="e0we2D9tm5j1" xmlns="http://www.w3.org/2000/svg" xmlns:xlink="http://www.w3.org/1999/xlink" viewBox="0 0 32 32" shape-rendering="geometricPrecision" text-rendering="geometricPrecision"><path id="e0we2D9tm5j2" d="M9,6C7.355469,6,6,7.355469,6,9L6,12.187500C4.843750,12.605469,4,13.707031,4,15L4,27L6,27L6,25L26,25L26,27L28,27L28,15C28,13.707031,27.156250,12.605469,26,12.187500L26,9C26,7.355469,24.644531,6,23,6ZM9,8L23,8C23.554688,8,24,8.445313,24,9L24,12.187500C22.843750,12.605469,22,13.707031,22,15L22,17L10,17L10,15C10,13.707031,9.156250,12.605469,8,12.187500L8,9C8,8.445313,8.445313,8,9,8ZM7,14C7.554688,14,8,14.445313,8,15L8,19L24,19L24,15C24,14.445313,24.445313,14,25,14C25.554688,14,26,14.445313,26,15L26,23L6,23L6,15C6,14.445313,6.445313,14,7,14Z" fill="rgb(0,0,0)" stroke="none" stroke-width="1"/><line id="e0we2D9tm5j3" x1="-11.187962" y1="10.432946" x2="11.187962" y2="-10.432946" transform="matrix(1.02117914636441 0 0 0.96721476045056 15.34043648000000 16.64308350000000)" fill="none" stroke="rgb(255,0,0)" stroke-width="3"/><line id="e0we2D9tm5j4" x1="11.103485" y1="10.643083" x2="-11.103485" y2="-10.643083" transform="matrix(1 0 0 1 17.01900650000000 16.09089937000000)" fill="none" stroke="rgb(255,0,0)" stroke-width="3"/></svg>